<svg width="501" height="501" viewBox="0 0 501 501" fill="none" xmlns="http://www.w3.org/2000/svg">
<path d="M220.768 1.79232C188.757 5.04577 160.154 12.976 133.512 25.9899C109.556 37.7836 94.0666 48.9674 73.5177 69.1998C52.4524 90.0422 40.061 106.92 27.2567 132.134C2.57723 180.631 -5.78692 240.616 4.53919 295.417C19.099 372.686 71.5557 440.805 143.322 475.475C162.013 484.524 174.714 489.2 192.784 493.776C215.192 499.368 227.79 500.893 255.361 500.893C282.209 500.893 293.361 499.673 316.285 494.182C401.579 473.645 471.486 405.221 492.861 321.038C498.644 298.467 500.399 282.911 500.193 256.07C500.09 247.327 498.338 247.346 497.508 247.225C495.757 246.969 494.637 247.45 493.894 249.868C493.692 250.527 493.32 252.359 493.274 253.223C493.229 254.088 491.106 276.303 488.731 287.791C485.943 301.517 477.889 325.308 471.796 338.118C447.53 389.157 400.959 433.79 347.47 457.073C278.181 487.167 197.534 480.66 135.268 439.992C82.0883 405.119 46.4632 351.437 35.311 289.316C32.523 273.761 31.5936 243.158 33.2458 226.586C37.686 184.901 54.0013 144.233 80.1264 110.173C90.0395 97.1591 107.8 79.1635 120.502 68.9964C153.752 42.6638 192.475 26.4982 237.806 20.093C254.225 17.7546 283.448 16.1278 295.736 16.8395L306.785 17.5512C309.37 17.5512 310.403 17.1936 310.919 14.6519C311.436 12.1101 307.305 11.0934 307.305 11.0934C307.305 11.0934 291.399 5.55411 280.66 3.62237C270.486 1.79232 230.897 -0.359841 220.768 1.79232Z" fill="black"/>
<path d="M367.313 201.943C367.313 297.665 367.002 375.789 366.588 375.586C348.071 366.431 333.175 366.431 314.037 375.688C285.589 389.42 270.899 413.732 279.796 432.246C282.899 438.655 286.52 442.114 294.382 445.674C299.658 448.115 302.244 448.522 311.14 448.827C324.175 449.336 335.037 446.895 347.657 440.689C358.933 435.196 373.623 421.362 378.278 411.901L381.278 405.798L381.588 256.874L381.795 108.051L386.761 108.763C394.105 109.882 407.243 114.155 415.416 118.122C439.415 129.922 453.174 145.079 459.588 166.746C461.657 173.969 461.967 176.919 461.864 193.703C461.864 210.589 461.553 213.539 459.174 222.186C457.726 227.476 454.622 235.817 452.346 240.7C448.208 249.55 439.415 263.079 435.588 266.436C432.898 268.776 433.002 270.607 435.691 272.031C439.105 273.862 443.036 271.624 450.691 263.689C470.76 242.734 481.312 214.557 481.208 182.005C481.105 137.653 463.208 103.982 426.278 78.7547C397.829 59.3253 383.761 47.0167 375.692 34.7081C372.795 30.334 370.519 27.8926 369.278 27.8926C367.416 27.8926 367.313 32.8771 367.313 201.943Z" fill="black"/>
<path d="M248.931 47.2934C205.471 50.0338 161.597 70.9422 126.435 105.451C85.9833 145.238 63.9942 195.377 62.3346 251.302C61.816 268.962 62.8532 281.649 66.3798 298.498C82.7679 377.462 149.046 443.943 224.452 456.731C229.224 457.543 233.373 458.051 233.684 457.848C233.891 457.543 232.335 456.528 230.053 455.412C213.873 447.292 201.841 432.474 198.003 415.625C196.551 409.535 196.447 407.201 197.485 401.111C199.767 387.511 207.753 375.229 218.022 369.241C222.067 366.907 223.208 366.805 230.053 367.414C234.099 367.719 243.641 369.038 251.005 370.155C260.755 371.677 267.705 372.083 276.002 371.779C286.582 371.373 288.242 371.068 294.465 368.023C299.547 365.587 302.348 363.456 304.941 360.005C309.401 353.915 310.646 349.043 310.542 338.082L310.334 329.251L316.765 322.857C323.611 315.752 324.13 314.23 321.64 306.516C320.396 302.456 320.396 302.456 324.752 297.787C330.353 291.799 331.286 287.536 328.382 281.852C325.582 276.372 325.685 273.936 328.797 269.876C330.768 267.338 333.05 266.019 337.406 264.801C348.504 261.655 354.209 255.463 354.209 246.43C354.209 239.934 348.608 228.77 338.962 215.575C326.723 199.031 322.055 187.867 322.055 175.078C322.055 166.755 324.544 158.94 331.909 143.614C339.792 127.374 341.762 120.676 341.762 109.613C341.762 94.8954 337.51 83.7308 327.449 71.9571C310.957 52.7743 286.063 44.959 248.931 47.2934ZM297.162 77.032C297.162 77.7425 299.236 83.2233 301.829 89.2116C312.305 113.774 314.587 128.085 311.579 152.647C309.816 167.669 309.816 183.198 311.579 190.302C313.654 198.422 318.01 207.354 325.582 219.127C333.776 231.51 337.717 239.934 338.443 245.72C338.858 249.475 338.547 250.388 336.161 252.52C334.709 253.839 330.353 255.768 326.515 256.783C318.217 259.016 313.757 262.67 313.757 267.237C313.757 268.861 315.209 273.022 317.076 276.473L320.396 282.664L318.321 285.506C317.18 287.029 311.061 291.698 304.63 295.859C298.303 300.02 293.117 303.776 293.013 304.08C293.013 304.385 295.813 304.994 299.236 305.298C302.763 305.603 306.289 306.415 307.119 307.125C309.505 309.054 308.26 313.418 303.696 319.508C299.755 324.684 299.755 324.786 299.547 335.544C299.34 347.419 298.303 350.667 292.702 356.554C288.864 360.411 280.151 363.862 273.928 363.862C266.356 363.862 254.739 361.223 238.455 355.844C217.607 349.043 210.865 347.419 202.256 347.216C192.506 347.115 186.179 349.043 180.267 354.017C164.294 367.922 165.227 396.239 182.549 421.715C188.876 430.85 188.565 430.85 175.599 420.294C153.403 402.228 137.222 374.215 129.962 341.127C126.746 326.308 126.746 297.787 129.962 282.867C134.11 264.091 140.852 248.46 150.291 235.468C157.863 225.217 170.517 214.154 198.211 193.855C213.562 182.487 230.676 169.597 236.069 165.233C256.503 148.283 278.077 123.416 286.79 106.568C289.901 100.579 291.664 95.4029 293.324 86.9787C294.569 80.7874 295.917 75.611 296.436 75.611C296.851 75.611 297.162 76.22 297.162 77.032ZM245.508 83.7308C235.758 98.7523 221.445 111.236 198.937 124.431C153.299 151.023 130.273 173.352 113.47 207.252C102.371 229.683 95.422 259.625 94.7997 287.638L94.6959 293.322L93.6587 288.247C93.0364 285.405 92.5178 273.124 92.5178 260.843C92.4141 241.558 92.7252 236.889 94.6959 226.537C105.172 172.845 140.852 124.634 190.328 97.4328C207.027 88.1966 219.266 83.9338 244.782 78.3514C249.346 77.3365 249.346 77.844 245.508 83.7308Z" fill="black"/>
<path d="M265.002 159.326C257.424 161.79 252.442 165.112 246.941 171.325C240.92 178.075 240.609 179.896 246.214 175.504C253.791 169.504 272.475 166.076 285.554 168.326C291.055 169.183 291.678 169.076 292.612 167.147C293.962 164.683 293.546 164.362 285.761 160.398C279.845 157.505 271.852 157.076 265.002 159.326Z" fill="black"/>
<path d="M245.465 203.795C247.119 206.939 253.115 212.494 257.043 214.486C265.933 219.097 278.337 218.993 284.746 214.381C287.537 212.389 287.641 211.97 286.607 208.826C285.987 207.044 285.366 205.367 285.263 205.262C285.16 205.052 281.645 205.681 277.407 206.625C267.897 208.721 259.007 207.987 250.634 204.633C245.672 202.537 244.638 202.432 245.465 203.795Z" fill="black"/>
</svg>
